<svg width="20" height="16" viewBox="0 0 20 16" fill="none" xmlns="http://www.w3.org/2000/svg">
<path d="M14 14V16H0V14C0 14 0 10 7 10C14 10 14 14 14 14ZM10.5 4.5C10.5 3.80777 10.2947 3.13108 9.91014 2.5555C9.52556 1.97993 8.97893 1.53133 8.33939 1.26642C7.69985 1.00152 6.99612 0.932204 6.31718 1.06725C5.63825 1.2023 5.01461 1.53564 4.52513 2.02513C4.03564 2.51461 3.7023 3.13825 3.56725 3.81718C3.4322 4.49612 3.50152 5.19985 3.76642 5.83939C4.03133 6.47893 4.47993 7.02556 5.0555 7.41014C5.63108 7.79473 6.30777 8 7 8C7.92826 8 8.8185 7.63125 9.47487 6.97487C10.1313 6.3185 10.5 5.42826 10.5 4.5ZM13.94 10C14.5547 10.4757 15.0578 11.0804 15.4137 11.7715C15.7696 12.4626 15.9697 13.2233 16 14V16H20V14C20 14 20 10.37 13.94 10ZM13 1C12.3117 0.996167 11.6385 1.20196 11.07 1.59C11.6774 2.43874 12.0041 3.45629 12.0041 4.5C12.0041 5.54371 11.6774 6.56126 11.07 7.41C11.6385 7.79804 12.3117 8.00383 13 8C13.9283 8 14.8185 7.63125 15.4749 6.97487C16.1313 6.3185 16.5 5.42826 16.5 4.5C16.5 3.57174 16.1313 2.6815 15.4749 2.02513C14.8185 1.36875 13.9283 1 13 1Z" fill="white"/>
<line x1="18.4795" y1="0.996696" x2="18.5" y2="3.99659" stroke="white"/>
<line x1="17" y1="2.5" x2="20" y2="2.5" stroke="white"/>
</svg>
